<?xml version="1.0" encoding="utf-8"?>
<!-- Generator: Adobe Illustrator 22.1.0, SVG Export Plug-In . SVG Version: 6.00 Build 0)  -->
<svg version="1.1" id="Layer_1" xmlns="http://www.w3.org/2000/svg" xmlns:xlink="http://www.w3.org/1999/xlink" x="0px" y="0px"
	 viewBox="0 0 16 16" style="enable-background:new 0 0 16 16;" xml:space="preserve">
<style type="text/css">
	.st0{fill:#F04950;}
</style>
<path id="call" class="st0" d="M3.5,7c0.6,1.2,1.4,2.2,2.3,3.2c0.9,0.9,2,1.7,3.2,2.3l1.8-1.8c0.1-0.1,0.2-0.2,0.4-0.2s0.3,0,0.5,0
	c0.9,0.3,1.9,0.5,3,0.5c0.2,0,0.4,0.1,0.6,0.2c0.2,0.2,0.2,0.4,0.2,0.6v2.9c0,0.2-0.1,0.4-0.2,0.6c-0.2,0.2-0.4,0.2-0.6,0.2
	c-1.9,0-3.8-0.4-5.5-1.1c-1.7-0.7-3.2-1.7-4.5-3c-1.3-1.3-2.3-2.8-3-4.5C0.9,5.1,0.5,3.2,0.5,1.3c0-0.2,0.1-0.4,0.2-0.6
	c0.2-0.2,0.4-0.2,0.6-0.2h2.9c0.2,0,0.4,0.1,0.6,0.2C5,0.9,5.1,1.1,5.1,1.3c0,1.1,0.2,2.1,0.5,3c0,0.1,0,0.3,0,0.5
	c0,0.2-0.1,0.3-0.2,0.4L3.5,7z"/>
</svg>
