<?xml version="1.0" encoding="utf-8"?>
<!-- Generator: Adobe Illustrator 22.1.0, SVG Export Plug-In . SVG Version: 6.00 Build 0)  -->
<svg version="1.1" id="Layer_1" xmlns="http://www.w3.org/2000/svg" xmlns:xlink="http://www.w3.org/1999/xlink" x="0px" y="0px"
	 viewBox="0 0 12 12" style="enable-background:new 0 0 12 12;" xml:space="preserve">
<style type="text/css">
	.st0{fill:#F04950;}
</style>
<path id="clock" class="st0" d="M7,3.2v3.5c0,0.1,0,0.1-0.1,0.2S6.8,7,6.8,7H4.2C4.2,7,4.1,7,4.1,6.9S4,6.8,4,6.8V6.2
	c0-0.1,0-0.1,0.1-0.2S4.2,6,4.2,6H6V3.2c0-0.1,0-0.1,0.1-0.2S6.2,3,6.2,3h0.5c0.1,0,0.1,0,0.2,0.1S7,3.2,7,3.2z M9.7,8.1
	c0.4-0.7,0.6-1.4,0.6-2.1s-0.2-1.5-0.6-2.1S8.8,2.7,8.1,2.3S6.8,1.8,6,1.8S4.5,1.9,3.9,2.3S2.7,3.2,2.3,3.9S1.8,5.2,1.8,6
	s0.2,1.5,0.6,2.1s0.9,1.2,1.5,1.5s1.4,0.6,2.1,0.6s1.5-0.2,2.1-0.6S9.3,8.8,9.7,8.1z M11.2,3C11.7,3.9,12,4.9,12,6s-0.3,2.1-0.8,3
	S9.9,10.7,9,11.2S7.1,12,6,12s-2.1-0.3-3-0.8S1.3,9.9,0.8,9S0,7.1,0,6s0.3-2.1,0.8-3S2.1,1.3,3,0.8S4.9,0,6,0s2.1,0.3,3,0.8
	S10.7,2.1,11.2,3z"/>
</svg>
