<?xml version="1.0" encoding="utf-8"?>
<!-- Generator: Adobe Illustrator 22.1.0, SVG Export Plug-In . SVG Version: 6.00 Build 0)  -->
<svg version="1.1" id="Layer_1" xmlns="http://www.w3.org/2000/svg" xmlns:xlink="http://www.w3.org/1999/xlink" x="0px" y="0px"
	 viewBox="0 0 26 26" style="enable-background:new 0 0 26 26;" xml:space="preserve">
<style type="text/css">
	.st0{fill:#0F346F;}
</style>
<path id="close-_icon" class="st0" d="M0.5,2.8c-0.6-0.6-0.6-1.7,0-2.3s1.7-0.6,2.3,0L13,10.7L23.2,0.5c0.6-0.6,1.7-0.6,2.3,0
	c0.6,0.6,0.6,1.7,0,2.3L15.3,13l10.2,10.2c0.6,0.6,0.6,1.7,0,2.3c-0.6,0.6-1.7,0.6-2.3,0L13,15.3L2.8,25.5c-0.6,0.6-1.7,0.6-2.3,0
	c-0.6-0.6-0.6-1.7,0-2.3L10.7,13L0.5,2.8z"/>
</svg>
