<?xml version="1.0" encoding="utf-8"?>
<!-- Generator: Adobe Illustrator 22.1.0, SVG Export Plug-In . SVG Version: 6.00 Build 0)  -->
<svg version="1.1" id="Layer_1" xmlns="http://www.w3.org/2000/svg" xmlns:xlink="http://www.w3.org/1999/xlink" x="0px" y="0px"
	 viewBox="0 0 17 14" style="enable-background:new 0 0 17 14;" xml:space="preserve">
<style type="text/css">
	.st0{fill:#F04950;}
</style>
<path id="email" class="st0" d="M15,3.4V1.7L8.3,5.9L1.6,1.7v1.7l6.7,4.1L15,3.4z M15,0c0.5,0,0.8,0.2,1.2,0.5s0.5,0.7,0.5,1.2v10
	c0,0.5-0.2,0.8-0.5,1.2s-0.7,0.5-1.2,0.5H1.6c-0.5,0-0.8-0.2-1.2-0.5S0,12.1,0,11.7v-10c0-0.5,0.2-0.8,0.5-1.2S1.2,0,1.6,0H15z"/>
</svg>
