<?xml version="1.0" encoding="utf-8"?>
<!-- Generator: Adobe Illustrator 22.1.0, SVG Export Plug-In . SVG Version: 6.00 Build 0)  -->
<svg version="1.1" id="Layer_1" xmlns="http://www.w3.org/2000/svg" xmlns:xlink="http://www.w3.org/1999/xlink" x="0px" y="0px"
	 viewBox="0 0 18 15" style="enable-background:new 0 0 18 15;" xml:space="preserve">
<style type="text/css">
	.st0{fill:#FFFFFF;}
</style>
<path id="envelope" class="st0" d="M16.7,12.7V5c-0.2,0.2-0.4,0.5-0.7,0.7C14.2,7,12.8,8.1,11.7,9c-0.3,0.3-0.6,0.5-0.8,0.7
	S10.4,10,10,10.2c-0.4,0.2-0.7,0.2-1,0.2h0c-0.3,0-0.7-0.1-1-0.2C7.6,10,7.3,9.9,7.1,9.7S6.6,9.3,6.3,9C5.2,8.1,3.8,7,2,5.6
	C1.7,5.4,1.5,5.2,1.3,5v7.7c0,0.1,0,0.2,0.1,0.2C1.4,13,1.5,13,1.6,13h14.8c0.1,0,0.2,0,0.2-0.1C16.7,12.8,16.7,12.8,16.7,12.7z
	 M16.7,2.1V1.9c0,0,0-0.1,0-0.1s0-0.1,0-0.1c0,0,0-0.1-0.1-0.1c0,0-0.1-0.1-0.1-0.1c0,0-0.1,0-0.1,0H1.6c-0.1,0-0.2,0-0.2,0.1
	C1.3,1.6,1.3,1.7,1.3,1.8c0,1.1,0.5,2.1,1.5,2.9c1.3,1,2.6,2.1,4,3.2c0,0,0.2,0.1,0.4,0.3c0.2,0.2,0.3,0.3,0.5,0.4
	c0.1,0.1,0.3,0.2,0.4,0.3C8.2,8.9,8.4,9,8.6,9.1S8.9,9.1,9,9.1h0c0.1,0,0.3,0,0.4-0.1s0.3-0.2,0.5-0.3s0.3-0.2,0.4-0.3
	c0.1-0.1,0.3-0.2,0.5-0.4c0.2-0.2,0.3-0.3,0.4-0.3c1.4-1.1,2.7-2.2,4-3.2c0.4-0.3,0.7-0.7,1-1.2C16.6,3,16.7,2.5,16.7,2.1z M18,1.8
	v10.9c0,0.4-0.2,0.8-0.5,1.1c-0.3,0.3-0.7,0.5-1.1,0.5H1.6c-0.4,0-0.8-0.2-1.1-0.5C0.2,13.5,0,13.1,0,12.7V1.8
	c0-0.4,0.2-0.8,0.5-1.1c0.3-0.3,0.7-0.5,1.1-0.5h14.8c0.4,0,0.8,0.2,1.1,0.5C17.8,0.9,18,1.3,18,1.8z"/>
</svg>
