<?xml version="1.0" encoding="utf-8"?>
<!-- Generator: Adobe Illustrator 22.1.0, SVG Export Plug-In . SVG Version: 6.00 Build 0)  -->
<svg version="1.1" id="Layer_1" xmlns="http://www.w3.org/2000/svg" xmlns:xlink="http://www.w3.org/1999/xlink" x="0px" y="0px"
	 viewBox="0 0 189 53" style="enable-background:new 0 0 189 53;" xml:space="preserve">
<style type="text/css">
	.st0{fill:#0F346F;}
</style>
<path id="sign" class="st0" d="M186.6,20c-3.7-2.6-7.9-4.1-12-5.9c-0.3-0.2-0.7-0.3-1.1-0.4c-2-0.2-3.8-1.4-5.8-1.4
	c-1.8-0.9-3.8-1.1-5.7-1.7c-0.6-0.2-1.1-0.3-1.8-0.5c0.8-2.8,1.8-5.5,1-8.5L159.4,0c-1.2,0.3-2.2,0.8-2.7,1.8
	c-0.5,2.7-2.2,4.9-2.9,7.3l-5.2-0.4c-0.2,0-0.4,0-0.6-0.1c-1.3-0.6-2.7-0.4-4.1-0.5c-0.6,0-1.3,0.1-1.8-0.1
	c-1.7-0.7-3.6-0.4-5.3-0.5c-0.9-0.1-1.9,0.1-2.7-0.2c-1.2-0.4-2.4-0.3-3.5-0.4c-1.3-0.1-2.6-0.1-3.9-0.2c-0.9-0.1-1.8-0.3-2.7-0.3
	c-7.9,0-15.8-0.1-23.7,0c-0.7,0-1.4,0-2.1,0.1c-2.2,0.5-4.3,0.5-6.5,0.5c-0.9,0-1.9-0.1-2.7,0.2c-1.1,0.3-2.2,0.4-3.3,0.4
	c-0.5,0-1,0-1.5,0.1c-1.2,0.5-2.4,0.4-3.5,0.4c-0.7,0-1.5-0.1-2.1,0.1c-2.2,0.8-4.5,0.6-6.8,1c-2.4,0.5-4.9,0.7-7.3,1.2
	c-1.2,0.3-2.3,0.6-3.5,0.6c-1.5,0-2.9,0.6-4.4,0.8c-1.6,0.2-3.1,0.7-4.7,1c-1.8,0.3-3.7,1.2-5.5,0.2C46.3,13,46.1,13,45.9,13
	c-3,0-6-0.2-9,0.1c-2.2,0.2-4.4,0.3-6.5,1c-0.6,0.2-1.2-0.1-1.6-0.8c-0.1-0.9-0.2-2-0.3-2.9c-0.4-0.6-0.7-1-1.4-0.7
	c-0.5,0.9-0.3,1.8,0,2.8c0.1,0.4,0.2,0.8,0.2,1.3c-0.7,0.7-1.6,1.1-2.6,1c-1.1,0.1-2.2,0.2-3.2,0.5c-2,0.4-3.9,0.6-5.9,0.8
	c-2.1,0.1-4.1,0.6-6.2,0.7c-0.6,0-1.1,0.3-1.7,0.5c-1.3,0.4-2.7,0.7-4.1,0.6c-0.8-0.1-1.6,0.1-2.3,0.5c-0.4,0.2-0.7,0.6-0.7,1.1
	c0.4,0.5,0.9,0.9,1.4,1.3c2.2,1.4,4.5,2.7,6.7,4C9,25,9.5,25.4,9.9,25.9c-1.9,0.9-3.6,1.8-5.3,2.7c-0.6,0.2-1,0.6-1.2,1.2
	c-0.9,0-1.7,0.5-2.1,1.2c-0.6,0-1.1,0.5-1.2,1.1C0.9,32,1.3,31.7,1.5,31h0h0c0.8,0,1.6-0.5,1.9-1.2c0.3,0,0.7-0.1,1-0.2
	c1.8-0.8,3.6-1.6,5.4-2.4c0.6-0.2,1.3-0.3,1.9-0.4c1.2,0.9,2.3,1.9,3.5,2.6c2.2,1.2,4.2,2.7,6.2,4.1c0.5,0.3,1.1,0.4,1.6,0.6
	c0.2,0.6,0.7,0.6,1.2,0.6C24.2,34,23.7,34,23.2,34c-1-1.4-2.6-2.1-3.9-3.1c-1.6-1.2-3.2-2.3-4.8-3.5c-0.4-0.4-0.7-0.8-1-1.2
	c2.9-2.1,6.3-2.7,9.3-4.1c1.7,0,3.1-1.3,4.8-1.1c0.3,2.1,0.5,9,0.3,13.5c0,0.4-0.1,0.8-0.2,1.2l-2.1-0.5c0.3,0.9,1.1,1,1.7,1.5
	c0.2,0.2,0.4,0.5,0.5,0.8c-0.3,0.8-0.9,0.7-1.4,0.7c-2.2,0-4.4,0-6.6,0c-0.4,0-0.8,0.2-0.7,0.8c1.2,0.7,2.6,1,3.9,1
	c1.6,0,3.2-0.2,4.9,0.2c0.9,2.4,0.8,5.4,3.4,6.9l0.5-0.3L29.8,43c0.2-1-0.3-1.9,0.4-2.9c1.2-0.2,2.5-0.1,3.8-0.1
	c2.3,1.2,5,1.1,7.5,1.8l4.8-1.8c5.1,0,10.2,0,15.3,0c1.9,0,3.8-0.3,5.6,0.5c0.3,0.1,0.6,0.1,0.9,0.1c1.5-0.1,2.9-0.1,4.4,0
	c1.5,0.1,3,0,4.5,0c1.6,0,3.2,0,4.8,0.1c0.2,0.1,0.4,0.1,0.6,0.2c0.1,0.2,0.1,0.5,0.2,0.7c-0.6,0.6-1.2,1.3-1.8,2
	c-0.5,0.8-0.9,1.6-1.2,2.5c0,0.5,0,1,0,1.5c0,0.6,0.1,1.2,0.1,1.6c1.3,2,3.3,2.1,5.1,2.9l3.4-1.7l1.5-3v-5.9
	c0.1-0.1,0.3-0.2,0.5-0.2c3.2,0,6.4,0,9.6,0c0.3,0,0.6,0,0.9,0.1c1.3,0.7,2.7,0.5,4.1,0.5c1.5,0,3,0,4.5,0c0.6,0,1.3-0.1,1.8,0.2
	c1.1,0.5,2.2,0.4,3.2,0.4c1.3,0,2.7-0.2,3.9,0.2c1.3,0.3,2.6,0.4,3.8,0.4c1.3,0,2.6,0,3.8,0l1.5,0.9c0.3,1.7,0.7,3.3,0.8,4.9
	c0.1,1,0.5,1.9,1.1,2.7c0.2,0.3,0.6,0.4,1,0.6c0.3-0.5,0.8-0.9,0.9-1.3c0.3-1.7,0.8-3.3,0.7-5c-0.1-0.7-0.2-1.4,0.7-2.1
	c0.7,0,1.4,0.1,2.1,0.2c2.1,0.4,8.9,0.5,12-0.1c-1.3-0.1-2-0.2-2.7-0.2c-1.2,0-2.5,0.2-3.6-0.1c-1.7-0.5-3.4-0.4-5-0.5
	c-0.8,0-1.6,0-2.4,0c-0.4-0.1-0.9-0.2-1.3-0.5c-0.5-2.6-1-5-1.5-7.5l4.9-2.8h5.4c0.6,0,1.3,0.2,1.8,0c1.9-0.7,3.9-0.5,5.9-0.6
	c0.6,0,1.2-0.1,1.8-0.3c1.7-0.4,3.5-0.4,5.2,0c0.2,0.2,0.3,0.2,0.3,0.3c0.5,1.3,1,2.6,1.4,3.9c1,2.9,1,2.9,0.2,5.7l1-0.7
	c0.3-3.3,0.3-3.3-0.5-5.7c-0.3-0.9-0.6-1.9-1-2.8c0-0.2,0-0.4,0-0.7l0.9-0.8c1,0,2.1,0,3.2,0c0.7,0,1.4,0,2-0.2
	c0.8-0.3,1.7-0.4,2.6-0.3c1,0,4.3-0.2,5.6-0.6c2.5-0.1,7.4-1,8.2-1.3c-1-0.4-8.5,0.8-9.6,1.2h0c-1.8,0-3.6,0-5.4,0
	c-1.4,0-2.8,0-4.1,0.4c-1.3,0.5-2.8,0.3-4-0.4c-0.6-3.2-1.6-6.4-1.4-9.8c1.3-2.5,3.2-4.6,4.5-7.1c0.1-0.2,0.5-0.3,0.5-0.4
	c1.5,0.2,2.8,0.1,4,0.5c4.3,1.3,8.7,2.2,12.8,3.8c3.7,1.5,7.1,3.2,9.6,6.3c0.4,0.5,1,0.9,1.5,1.5c0.2,0.3,0.4,0.7,0.5,1
	c-2.4,1.9-5.4,1.5-8.3,2.7c0.6,0.1,1.1,0.1,1.7,0.1c1.4-0.2,2.7-0.4,4.1-0.8c1.1-0.4,2.4-0.4,3.1-1.5
	C188.9,23.3,188.9,23.3,186.6,20z M27,19l-15.4,5.8c-2.4-0.8-4.5-2.6-6.7-4.1c-0.3-0.3-0.5-0.6-0.7-0.9L8.1,19
	c2.4-0.5,4.9-0.8,7.3-1.3c3.2-0.6,6.5-0.6,9.7-1.6c0.6-0.2,1.3,0,2,0C27.4,17.6,27.4,17.6,27,19z M43.2,17c1.2-1.2,3-1,4.4-1.5
	c0.8-0.2,1.5-0.4,2.3-0.4c0.8-0.1,1.6-0.2,2.4,0c1,0.3,2,0.4,3,0.4c1.8-0.2,3.5,0.6,5.3,0.8c1.6,0.2,3.1,0.8,4.6,1.3
	c0.4,0.2,0.8,0.4,1.2,0.7l-0.1,0.6c-0.7,0.1-1.4,0.2-2,0.2c-2.2,0.1-4.4-0.2-6.5,0.6c-0.3,0.1-0.6,0.1-0.9,0c-4,0-8,0-12,0.1
	c-0.5,0-0.9-0.1-1.4-0.1C42.8,18.6,43,17.8,43.2,17z M29.2,17c0-0.3,0.1-0.5,0.2-0.7c0.5-0.3,0.9-0.6,1.5-0.7
	c3.2-0.7,6.5-0.8,9.8-0.7c0.1,0.7-0.6,0.8-0.9,0.9c-2.9,0.7-5.8,1.5-8.6,2.5c-0.5,0.2-1.1,0.1-1.9,0.1C29.3,17.6,29.2,17.3,29.2,17z
	 M37.7,37.7c-1.8,0.6-3.7,0.7-5.5,0.2c-1-0.3-2.2-0.5-2.9-1.9c0-0.4-0.1-1.1-0.1-1.8c0-2.4,0-4.8,0-7.2c0-0.8,0-1.6,0-2.4
	c0.1-0.7,0.3-1.3,0.6-2c-0.2-0.7-0.3-1.3-0.5-2.1c0.3-0.3,0.7-0.5,1-0.6c3.4-0.9,6.9-1.9,10.2-2.8c0.9,0.6,0.7,1.3,0.5,2.2l-1.6,1.3
	l1,1.7c0.5,1.8-0.7,3.5-0.5,5.3c-0.3,0.9-0.3,1.3,0,2.5c0-0.9,0.4-2,0.5-2.6l0.1-0.3c0.3-1.2,0.6-2.5,0.9-3.9
	c1.4,2.2,0.9,4.7,1.5,6.9c0.6,2.2,0.7,4.5,1.1,6.9C42,37.9,40,38.6,37.7,37.7z M50.4,37.4c-1.4,0.3-3,0.1-4.8,0.1
	c-0.5-2.6-0.9-5-1.3-7.4c0.4-1.6-1-3.1-0.4-4.9c3.2,1.9,6.2,3.7,9.3,5.5c3.1,1.8,6.2,3.6,9.7,5.6c-0.9,0.1-1.3,0.1-1.8,0.2
	c-0.9,0.1-1.8,0.3-2.7,0.3c-1.4,0.1-2.8,0.2-4.2,0.2C53,37,51.7,37.1,50.4,37.4z M82.1,39.7c-0.9-0.2-1.8-0.3-2.6-0.3
	c-3.9-0.1-7.8,0-11.7-0.1c-1.5,0.1-3-0.1-4.4-0.4c-1.2-0.3-2.6-0.1-3.9-0.1c-0.8,0-1.5-0.1-2.3-0.1c2.6-0.5,5-1.2,7.6-1.1
	c1.6,0.1,3.2,0.2,4.7-0.5c0.4-0.2,1-0.1,1.5-0.1c1.5-0.1,3,0,4.4-0.5c0.7-0.3,1.6-0.1,2.4-0.1c2.1-0.1,4.2,0.2,6.2-0.5
	c0.6-0.2,1.4,0,1.9,0c0.3,0.3,0.5,0.4,0.6,0.5c0.2,0.4,0.5,0.9,0.7,1.3c-0.1,0.3-0.3,0.5-0.5,0.8C85.6,39.8,83.7,40.3,82.1,39.7z
	 M83,34.4c0.3-0.7,0.6-1.5,0.9-2.2l1-0.4c0.3,0.8,1,1.4,0.6,2.4C84.6,34.8,83.8,34.7,83,34.4L83,34.4z M88.6,46.6l-1.3,2.7l-2.7,1.4
	l-3.2-1.5c-0.4-0.7-0.7-1.4-1.1-2.1c0.5-1,1-2,1.4-2.8c1-1,1.8-1.8,2.7-2.7c0.2-0.2,0.4-0.3,0.6-0.4h2.6
	C89.1,42.8,88.5,44.7,88.6,46.6L88.6,46.6z M128.2,37.1c-0.2,1.7-0.5,3.3-0.8,5.3c-2.7-0.1-5.2,0.4-7.7-0.4c-0.9-0.3-2-0.2-3-0.1
	c-0.9,0.1-1.7-0.6-2.6-0.2c-1.5-0.4-3.1-0.5-4.7-0.4c-1.5,0.1-2.9,0-4.4-0.2c-1.7-0.3-3.3-0.4-5-0.4c-1.8,0.1-3.5-0.8-5.3-0.6
	c-1.7,0.1-3.3,0.1-5-0.1c-1-1.1-1-2.5-1.6-3.8c4.2-1.2,8.6-1.3,12.9-0.3l2.8-1.2c3.5,0,7.1-0.1,10.7,0c2.3,0.1,4.6-0.1,6.8-0.8
	c1.3-0.4,2.7-0.5,4.1-0.4l2.8,1.4C128.2,35.6,128.3,36.4,128.2,37.1z M130.8,48.2c-0.4,0.8-0.6,1.2-0.8,1.7
	c-0.2-0.1-0.4-0.2-0.5-0.3c-0.7-1.2-0.7-2.6-1.1-3.9c-0.2-0.9,0.2-1.7,0.9-2.4C130.8,44.7,129.7,46.7,130.8,48.2z M129,39.3
	c0.8,1.2,0.8,1.2,0.9,2.7l-0.7,0.2C128.7,41.2,129,40.3,129,39.3z M131,31.4c-0.5-1.1-0.4-2.1,0.2-3.7l1.8,2.5
	C132.6,31.1,131.9,31.3,131,31.4L131,31.4z M144.3,30.2c-1.4,0.3-2.9,0.3-4.4-0.1c0.1-0.4,0.2-0.7,0.3-0.9c0.8-0.5,1.5-1,1.9-1.9
	c-0.3-1.6-0.3-1.6-1.4-2.8c-0.7,0.6,0.2,1,0.2,1.5c0,0.5,0,1-0.1,1.3c-0.5,0.5-1.2,0.6-1.8,0.4c-0.1-0.2-0.3-0.3-0.3-0.5
	c0-1,0-2,0-3.1l0.8-1.4c-0.9-0.6-1.2,0.6-1.8,0.4c-0.3,0.9-0.6,1.7-0.8,2.4c0,1.1,0.9,2.1,0.2,3.4c-0.7,0.7-1.7,1.1-2.8,1.2
	c-1.1-1.6-1.6-3.5-3.4-4.6l-1.3,1.3c-0.1,0.8-0.2,1.6-0.3,2.6c-1.3-1.4-1-3.2-1.6-4.6c-0.6-1.4-0.8-2.9-1.3-4.3
	c-0.4-1.5-0.9-3-1.3-4.4c-0.7-0.3-1,0-1,0.4c0,0.7,0,1.4,0.2,2.1c1,3.7,2.1,7.5,3.1,11.2c0.1,0.4,0.1,0.8,0.2,1.1
	c-3.5,1.1-7.8,1.4-12.3,0.8c-0.2-0.6-0.3-1.2-0.5-2c-0.3,0.7-0.4,1.1-0.7,1.7l-1.9,1c-1.2-0.2-2.2-0.8-2.9-1.8
	c-0.2-0.7-0.3-1.4-0.5-2.2l-1.4,0.2v-1.1c1.2-1,2.8-1.2,4.2-0.6c0.4,0.2,0.9,0.4,1.3-0.1c-0.1-0.2-0.2-0.4-0.3-0.5
	c-0.6-0.3-1.2-0.7-1.8-0.9h-3.5c-1.1,0.4-1.4,1.3-1.8,2.2c0.3,1.6,1.5,2.9,2.3,4.4c-0.7,0.9-1.9,1.3-3,1.1c-1-0.5-0.2-1.8-1.2-2.3
	c0,0.8,0.1,1.6-1,2.2c-1.4,0-3.2,0.8-4.9-0.7l1.5-0.7c0-1-0.8-1.5-1.6-2h-1l-0.8,1.5c-0.1,0.8,0.8,1.5,0,2.5c-1.2,0.3-2.6,0.1-4,0.2
	c-1.4,0.1-2.7,0.3-4.1,0.5c-0.8-1.1-1.4-2.2-1.8-3.5c-0.4-1.1-0.8-2.3-2-2.8c-0.7,0.7-0.1,1.3,0.1,2l-0.4,2l-2.6,2.2l-2.1,0.7
	c-1.6-0.3-2.6-1.4-3.6-2.7c0.1-0.5,0.2-1.1,0.3-1.8l-0.5-1c-0.8-0.2-1.1,0.1-1.4,0.7c-0.6,1.8,1,3.1,1.3,4.7
	c-0.6,0.6-1.4,0.9-2.3,0.9c-2.9,0-5.8,0-8.5,0c-3.1-1.7-6.1-3.3-9.1-5c-1.9-1-3.8-2.2-5.6-3.5c-1.4-1.1-3.1-1.8-4.4-3
	c-0.6-0.5-1.1-1.1-1.7-1.6c0.1-0.4,0.2-0.7,0.2-1c0.3-0.1,0.6-0.2,0.9-0.3c2.9,0,5.8,0,8.7,0c1.3,0,2.6,0.1,3.9-0.4
	c0.5-0.2,1.2-0.1,1.8-0.2c2-0.1,4-0.1,5.9-0.5c1.7-0.4,3.6-0.1,5.4-0.2c1,0,2-0.1,3-0.3c0.9-0.2,1.8-0.3,2.7-0.2c1.4,0,2.8,0,4.3,0
	l1.4,1.6c3.3,0.8,6.7,1.4,10.1,2.5c3.5,1.1,6.9,2.3,9.8,4.7c0.1,0.1,0.3,0,0.7-0.1c-0.6-1.1-1.6-2.1-2.7-2.7
	c-1.3-0.7-2.7-1.3-4.1-1.9c-1.2-0.5-2.4-1.1-3.5-1.7c2.9,0.2,5.1,0.4,7.4,0.6c2.3,0.2,4.5,0.6,6.7,1.1c2.2,0.5,4.5,0.7,6.7,1.1
	c0.4-0.4,0.2-0.8-0.2-0.9c-2.4-0.7-4.7-1.5-7.2-2c-1.8-0.3-3.5-0.7-5.3-1c-0.3-0.1-0.6-0.1-0.9-0.1c-2.9,0.2-5.7-0.6-8.6-0.7
	c-1.2-0.1-2.4-0.3-3.5-0.7c-2.1-0.7-4.2-1.1-6.4-1.1c-1,0-2-0.3-3.1-0.5c-2.8,0.9-5.8,0.4-8.9,0.6c-3.8-2-7.9-3.7-12.4-4.5
	c0.8-0.3,1.4-0.7,2-0.8c2.2-0.3,4.3-0.9,6.4-1.2c1.6-0.2,3.1-0.4,4.7-0.7c3.3-0.6,6.7-0.9,10-1.3c2-0.3,3.9-0.5,5.9-0.5
	c2.7-1.1,5.5-0.3,8.3-1c1.7-0.4,3.6-0.1,5.4-0.2c1.5,0,3,0.1,4.4-0.4c0.7-0.3,1.6-0.1,2.4-0.1c3.3,0,6.6,0,9.9,0
	c1.8,0,3.6-0.2,5.3,0.5c0.5,0.2,1.2,0.1,1.8,0.1l7.2,0.1c1.1,0,2.2-0.1,3.2,0.4c0.2,0.1,0.4,0.1,0.6,0.1c1.4,0,2.8,0,4.2,0.1
	c1.3,0.1,2.5,0.4,3.8,0.5c1.6,0.1,3.2,0,4.7,0.6c2.1-0.2,4.1,0.6,6.2,0.7c0.8,0.7,0.6,1.6,0.4,2.3c-0.6,1.8-0.5,3.5-0.1,5.5
	c-1.3,1.8-2.7,3.7-3.7,5.9C147.7,26.2,146.5,28.6,144.3,30.2L144.3,30.2z M152.2,30.4c-2,0-4,0-6.1,0c0.1-0.4,0.1-0.7,0.3-0.8
	c2.3-2.2,4.4-4.5,6.1-7.3c0.1-0.2,0.4-0.4,0.8-0.6c0.8,2.6,1.1,5.2,1.5,7.7C154.1,30,153.1,30.4,152.2,30.4L152.2,30.4z M155.2,15.8
	c-0.5-1.9-0.5-1.9-0.1-4.4c0.8-0.4,1.8-0.3,2.6,0.2C157.1,13.2,156.5,14.6,155.2,15.8L155.2,15.8z M158.8,9.8
	c-1.2,0.2-2.2,0.4-3-0.4c0-2,1.4-3.5,1.6-5.1l1.6-2.1l1,0.7C160.4,5.4,159.3,7.5,158.8,9.8L158.8,9.8z"/>
</svg>
