<?xml version="1.0" encoding="utf-8"?>
<!-- Generator: Adobe Illustrator 22.1.0, SVG Export Plug-In . SVG Version: 6.00 Build 0)  -->
<svg version="1.1" id="Layer_1" xmlns="http://www.w3.org/2000/svg" xmlns:xlink="http://www.w3.org/1999/xlink" x="0px" y="0px"
	 viewBox="0 0 18.3 16.3" style="enable-background:new 0 0 18.3 16.3;" xml:space="preserve">
<style type="text/css">
	.st0{fill:#0F346F;}
</style>
<path id="home" class="st0" d="M15.6,9.2v5.4c0,0.2-0.1,0.4-0.2,0.5c-0.1,0.1-0.3,0.2-0.5,0.2h-4.3V11H7.7v4.3H3.4
	c-0.2,0-0.4-0.1-0.5-0.2c-0.1-0.1-0.2-0.3-0.2-0.5V9.2c0,0,0,0,0,0s0,0,0,0l6.4-5.3L15.6,9.2C15.6,9.2,15.6,9.2,15.6,9.2z M18.1,8.5
	l-0.7,0.8c-0.1,0.1-0.1,0.1-0.2,0.1h0c-0.1,0-0.2,0-0.2-0.1L9.2,2.9L1.4,9.3C1.4,9.4,1.3,9.4,1.2,9.4C1.1,9.4,1,9.4,0.9,9.3L0.2,8.5
	C0.2,8.4,0.2,8.3,0.2,8.2c0-0.1,0-0.2,0.1-0.2l8-6.7C8.6,1.1,8.8,1,9.2,1C9.5,1,9.8,1.1,10,1.3l2.7,2.3V1.4c0-0.1,0-0.2,0.1-0.3
	C12.9,1.1,13,1,13.1,1h2.1c0.1,0,0.2,0,0.3,0.1c0.1,0.1,0.1,0.2,0.1,0.3v4.6L18,8c0.1,0.1,0.1,0.1,0.1,0.2S18.1,8.4,18.1,8.5z"/>
</svg>
