<?xml version="1.0" encoding="utf-8"?>
<!-- Generator: Adobe Illustrator 22.1.0, SVG Export Plug-In . SVG Version: 6.00 Build 0)  -->
<svg version="1.1" id="Layer_1" xmlns="http://www.w3.org/2000/svg" xmlns:xlink="http://www.w3.org/1999/xlink" x="0px" y="0px"
	 viewBox="0 0 18 18" style="enable-background:new 0 0 18 18;" xml:space="preserve">
<style type="text/css">
	.st0{fill:#0F346F;}
</style>
<path id="Instagram" class="st0" d="M10.6,10.9c0.6-0.6,0.8-1.2,0.8-2s-0.3-1.5-0.8-2C10,6.3,9.4,6,8.6,6s-1.5,0.3-2,0.8
	C6,7.4,5.7,8.1,5.7,8.9s0.3,1.5,0.8,2s1.2,0.8,2,0.8S10,11.4,10.6,10.9z M11.7,5.7C12.5,6.6,13,7.6,13,8.9s-0.4,2.3-1.3,3.1
	s-1.9,1.3-3.1,1.3S6.3,12.8,5.5,12c-0.9-0.9-1.3-1.9-1.3-3.1s0.4-2.3,1.3-3.1c0.9-0.9,1.9-1.3,3.1-1.3S10.8,4.9,11.7,5.7z M13.9,3.6
	c0.2,0.2,0.3,0.4,0.3,0.7S14.1,4.8,13.9,5c-0.2,0.2-0.4,0.3-0.7,0.3c-0.3,0-0.5-0.1-0.7-0.3c-0.2-0.2-0.3-0.4-0.3-0.7
	s0.1-0.5,0.3-0.7c0.2-0.2,0.4-0.3,0.7-0.3C13.4,3.3,13.7,3.4,13.9,3.6z M9.4,1.8H8.6c-0.1,0-0.3,0-0.9,0c-0.5,0-0.9,0-1.2,0
	c-0.3,0-0.6,0-1.1,0C5,1.9,4.6,1.9,4.3,2C4,2,3.7,2.1,3.5,2.2c-0.4,0.1-0.7,0.4-1,0.6C2.3,3.1,2,3.4,1.9,3.8C1.8,4,1.7,4.3,1.7,4.6
	S1.6,5.3,1.6,5.7c0,0.5,0,0.8,0,1.1s0,0.7,0,1.2s0,0.8,0,0.9s0,0.3,0,0.9s0,0.9,0,1.2s0,0.6,0,1.1c0,0.5,0.1,0.8,0.1,1.1
	s0.1,0.6,0.2,0.8c0.1,0.4,0.4,0.7,0.6,1s0.6,0.5,1,0.6c0.2,0.1,0.5,0.2,0.8,0.2c0.3,0.1,0.7,0.1,1.1,0.1c0.5,0,0.8,0,1.1,0
	c0.3,0,0.7,0,1.2,0c0.5,0,0.8,0,0.9,0c0.1,0,0.3,0,0.9,0s0.9,0,1.2,0c0.3,0,0.6,0,1.1,0c0.5,0,0.8-0.1,1.1-0.1
	c0.3-0.1,0.6-0.1,0.8-0.2c0.4-0.1,0.7-0.4,1-0.6s0.5-0.6,0.6-1c0.1-0.2,0.2-0.5,0.2-0.8c0.1-0.3,0.1-0.7,0.1-1.1c0-0.5,0-0.8,0-1.1
	c0-0.3,0-0.7,0-1.2c0-0.5,0-0.8,0-0.9s0-0.3,0-0.9c0-0.5,0-0.9,0-1.2c0-0.3,0-0.6,0-1.1c0-0.5-0.1-0.8-0.1-1.1
	c-0.1-0.3-0.1-0.6-0.2-0.8c-0.1-0.4-0.4-0.7-0.6-1c-0.3-0.3-0.6-0.5-1-0.6C13.4,2.1,13.1,2,12.8,2c-0.3-0.1-0.7-0.1-1.1-0.1
	c-0.5,0-0.8,0-1.1,0C10.3,1.8,9.9,1.8,9.4,1.8z M17.1,5.3c0,0.7,0.1,1.8,0.1,3.5s0,2.9-0.1,3.5c-0.1,1.5-0.5,2.7-1.4,3.6
	c-0.8,0.8-2,1.3-3.6,1.4c-0.7,0-1.8,0.1-3.5,0.1c-1.7,0-2.9,0-3.5-0.1c-1.5-0.1-2.7-0.5-3.6-1.4c-0.8-0.8-1.3-2-1.4-3.6
	C0,11.7,0,10.6,0,8.9S0,6,0.1,5.3c0.1-1.5,0.5-2.7,1.4-3.6c0.8-0.8,2-1.3,3.6-1.4c0.7,0,1.8-0.1,3.5-0.1c1.7,0,2.9,0,3.5,0.1
	c1.5,0.1,2.7,0.5,3.6,1.4C16.6,2.6,17,3.8,17.1,5.3z"/>
</svg>
