<?xml version="1.0" encoding="utf-8"?>
<!-- Generator: Adobe Illustrator 22.1.0, SVG Export Plug-In . SVG Version: 6.00 Build 0)  -->
<svg version="1.1" id="Layer_1" xmlns="http://www.w3.org/2000/svg" xmlns:xlink="http://www.w3.org/1999/xlink" x="0px" y="0px"
	 viewBox="0 0 24 19" style="enable-background:new 0 0 24 19;" xml:space="preserve">
<style type="text/css">
	.st0{fill:#F04950;}
</style>
<path id="menu" class="st0" d="M23.1,16.2v1.9c0,0.3-0.1,0.5-0.3,0.7c-0.2,0.2-0.4,0.3-0.7,0.3H1.8c-0.3,0-0.5-0.1-0.7-0.3
	c-0.2-0.2-0.3-0.4-0.3-0.7v-1.9c0-0.3,0.1-0.5,0.3-0.7s0.4-0.3,0.7-0.3h20.4c0.3,0,0.5,0.1,0.7,0.3S23.1,16,23.1,16.2z M23.1,8.8
	v1.9c0,0.3-0.1,0.5-0.3,0.7s-0.4,0.3-0.7,0.3H1.8c-0.3,0-0.5-0.1-0.7-0.3s-0.3-0.4-0.3-0.7V8.8c0-0.3,0.1-0.5,0.3-0.7
	s0.4-0.3,0.7-0.3h20.4c0.3,0,0.5,0.1,0.7,0.3S23.1,8.5,23.1,8.8z M23.1,1.4v1.9c0,0.3-0.1,0.5-0.3,0.7s-0.4,0.3-0.7,0.3H1.8
	c-0.3,0-0.5-0.1-0.7-0.3S0.9,3.5,0.9,3.2V1.4c0-0.3,0.1-0.5,0.3-0.7s0.4-0.3,0.7-0.3h20.4c0.3,0,0.5,0.1,0.7,0.3S23.1,1.1,23.1,1.4z
	"/>
</svg>
