<?xml version="1.0" encoding="utf-8"?>
<!-- Generator: Adobe Illustrator 22.1.0, SVG Export Plug-In . SVG Version: 6.00 Build 0)  -->
<svg version="1.1" id="Layer_1" xmlns="http://www.w3.org/2000/svg" xmlns:xlink="http://www.w3.org/1999/xlink" x="0px" y="0px"
	 viewBox="0 0 13 21" style="enable-background:new 0 0 13 21;" xml:space="preserve">
<style type="text/css">
	.st0{fill:#0F346F;}
</style>
<path id="Ok" class="st0" d="M9.7,9.5c-1,1-2.2,1.5-3.6,1.5c-1.4,0-2.6-0.5-3.6-1.5S1.1,7.3,1.1,5.9c0-1.4,0.5-2.6,1.5-3.6
	s2.2-1.5,3.6-1.5c1.4,0,2.6,0.5,3.6,1.5c1,1,1.5,2.2,1.5,3.6C11.2,7.3,10.7,8.5,9.7,9.5z M7.9,4.2C7.4,3.7,6.8,3.4,6.1,3.4
	c-0.7,0-1.3,0.2-1.8,0.7C3.9,4.6,3.7,5.2,3.7,5.9c0,0.7,0.2,1.3,0.7,1.8c0.5,0.5,1.1,0.7,1.8,0.7c0.7,0,1.3-0.2,1.8-0.7
	c0.5-0.5,0.7-1.1,0.7-1.8C8.6,5.2,8.4,4.6,7.9,4.2z M12,11.6c0.1,0.2,0.2,0.4,0.2,0.6c0,0.2,0,0.3-0.1,0.5c0,0.1-0.1,0.3-0.3,0.4
	c-0.1,0.2-0.3,0.3-0.5,0.4c-0.2,0.1-0.4,0.3-0.7,0.5c-0.9,0.5-2,0.9-3.5,1l0.8,0.8l3,3c0.2,0.2,0.3,0.5,0.3,0.8s-0.1,0.6-0.3,0.8
	l-0.1,0.1c-0.2,0.2-0.5,0.3-0.8,0.3c-0.3,0-0.6-0.1-0.8-0.3c-0.5-0.5-1.5-1.5-3-3l-3,3c-0.2,0.2-0.5,0.3-0.8,0.3s-0.6-0.1-0.8-0.3
	l-0.1-0.1c-0.2-0.2-0.3-0.5-0.3-0.8s0.1-0.6,0.3-0.8L5.2,15c-1.5-0.2-2.7-0.5-3.5-1c-0.3-0.2-0.5-0.3-0.7-0.5S0.6,13.2,0.5,13
	s-0.2-0.3-0.3-0.4c0-0.1-0.1-0.3-0.1-0.5c0-0.2,0.1-0.4,0.2-0.6c0.1-0.1,0.2-0.3,0.3-0.4C0.8,11.1,0.9,11,1.1,11
	c0.2-0.1,0.4,0,0.6,0C2,11,2.2,11.2,2.4,11.4c0,0,0.1,0.1,0.2,0.1c0.1,0.1,0.2,0.1,0.5,0.3c0.2,0.1,0.5,0.2,0.8,0.3
	c0.3,0.1,0.6,0.2,1,0.3c0.4,0.1,0.8,0.1,1.3,0.1c0.7,0,1.3-0.1,1.9-0.3c0.6-0.2,1.1-0.4,1.3-0.6l0.4-0.3c0.2-0.2,0.5-0.3,0.7-0.4
	c0.2-0.1,0.4-0.1,0.6,0c0.2,0.1,0.3,0.1,0.5,0.2C11.8,11.3,11.9,11.4,12,11.6z"/>
</svg>
