<?xml version="1.0" encoding="utf-8"?>
<!-- Generator: Adobe Illustrator 22.1.0, SVG Export Plug-In . SVG Version: 6.00 Build 0)  -->
<svg version="1.1" id="Layer_1" xmlns="http://www.w3.org/2000/svg" xmlns:xlink="http://www.w3.org/1999/xlink" x="0px" y="0px"
	 viewBox="0 0 12 13" style="enable-background:new 0 0 12 13;" xml:space="preserve">
<style type="text/css">
	.st0{fill:#F04950;}
</style>
<path id="person" class="st0" d="M6,7.9c0.7,0,1.6,0.1,2.4,0.3c1,0.3,1.8,0.6,2.4,1c0.7,0.5,1.1,1,1.1,1.7v1.5H0v-1.5
	c0-0.6,0.4-1.2,1.1-1.7c0.6-0.4,1.4-0.8,2.4-1C4.4,8,5.3,7.9,6,7.9z M6,6.4c-0.5,0-1-0.1-1.5-0.4C4.1,5.7,3.7,5.3,3.4,4.9
	C3.2,4.4,3,3.9,3,3.4s0.1-1,0.4-1.5C3.7,1.4,4.1,1,4.5,0.8C5,0.5,5.5,0.4,6,0.4s1,0.1,1.5,0.4C7.9,1,8.3,1.4,8.6,1.9
	C8.8,2.3,9,2.8,9,3.4s-0.1,1-0.4,1.5C8.3,5.3,7.9,5.7,7.5,5.9C7,6.2,6.5,6.4,6,6.4z"/>
</svg>
