<?xml version="1.0" encoding="UTF-8"?>
<svg width="11px" height="11px" viewBox="0 0 11 11" version="1.1" xmlns="http://www.w3.org/2000/svg" xmlns:xlink="http://www.w3.org/1999/xlink">
    <!-- Generator: Sketch 51.2 (57519) - http://www.bohemiancoding.com/sketch -->
    <title>plus</title>
    <desc>Created with Sketch.</desc>
    <defs></defs>
    <g id="Page-1" stroke="none" stroke-width="1" fill="none" fill-rule="evenodd">
        <g id="iPad-Pro_v2" transform="translate(-120.000000, -3052.000000)" fill="#0F346F">
            <g id="programm" transform="translate(97.000000, 2965.000000)">
                <g id="plus" transform="translate(23.000000, 87.000000)">
                    <path d="M11,4.75 L11,6.25 C11,6.45833437 10.9270841,6.63541594 10.78125,6.78125 C10.6354159,6.92708406 10.4583344,7 10.25,7 L7,7 L7,10.25 C7,10.4583344 6.92708406,10.6354159 6.78125,10.78125 C6.63541594,10.9270841 6.45833437,11 6.25,11 L4.75,11 C4.54166563,11 4.36458406,10.9270841 4.21875,10.78125 C4.07291594,10.6354159 4,10.4583344 4,10.25 L4,7 L0.75,7 C0.541665625,7 0.364584063,6.92708406 0.21875,6.78125 C0.0729159375,6.63541594 0,6.45833437 0,6.25 L0,4.75 C0,4.54166563 0.0729159375,4.36458406 0.21875,4.21875 C0.364584063,4.07291594 0.541665625,4 0.75,4 L4,4 L4,0.75 C4,0.541665625 4.07291594,0.364584063 4.21875,0.21875 C4.36458406,0.0729159375 4.54166563,0 4.75,0 L6.25,0 C6.45833437,0 6.63541594,0.0729159375 6.78125,0.21875 C6.92708406,0.364584063 7,0.541665625 7,0.75 L7,4 L10.25,4 C10.4583344,4 10.6354159,4.07291594 10.78125,4.21875 C10.9270841,4.36458406 11,4.54166563 11,4.75 Z"></path>
                </g>
            </g>
        </g>
    </g>
</svg>