<?xml version="1.0" encoding="utf-8"?>
<!-- Generator: Adobe Illustrator 22.1.0, SVG Export Plug-In . SVG Version: 6.00 Build 0)  -->
<svg version="1.1" id="Layer_1" xmlns="http://www.w3.org/2000/svg" xmlns:xlink="http://www.w3.org/1999/xlink" x="0px" y="0px"
	 viewBox="0 0 18 18" style="enable-background:new 0 0 18 18;" xml:space="preserve">
<style type="text/css">
	.st0{fill:#F04950;}
</style>
<path id="repeat" class="st0" d="M17.1,1.7v5c0,0.2-0.1,0.4-0.2,0.5c-0.1,0.1-0.3,0.2-0.5,0.2h-5c-0.3,0-0.5-0.1-0.7-0.4
	c-0.1-0.3-0.1-0.5,0.2-0.8l1.5-1.5c-1.1-1-2.4-1.5-3.9-1.5c-0.8,0-1.5,0.2-2.2,0.5C5.7,3.9,5,4.3,4.5,4.8S3.6,5.9,3.3,6.6
	C3,7.3,2.9,8.1,2.9,8.9s0.2,1.5,0.5,2.2c0.3,0.7,0.7,1.3,1.2,1.8s1.1,0.9,1.8,1.2c0.7,0.3,1.4,0.5,2.2,0.5c0.9,0,1.7-0.2,2.5-0.6
	c0.8-0.4,1.5-0.9,2-1.6c0.1-0.1,0.1-0.1,0.3-0.1c0.1,0,0.2,0,0.3,0.1l1.5,1.5c0.1,0.1,0.1,0.1,0.1,0.2c0,0.1,0,0.2-0.1,0.3
	c-0.8,1-1.8,1.7-2.9,2.3c-1.2,0.5-2.4,0.8-3.6,0.8c-1.2,0-2.3-0.2-3.3-0.7s-2-1.1-2.7-1.8c-0.8-0.8-1.4-1.7-1.8-2.7S0,10,0,8.9
	c0-1.2,0.2-2.3,0.7-3.3s1.1-2,1.8-2.7C3.3,2,4.2,1.4,5.2,1c1.1-0.5,2.2-0.7,3.3-0.7c1.1,0,2.2,0.2,3.2,0.6c1,0.4,1.9,1,2.7,1.7
	l1.5-1.4c0.2-0.2,0.5-0.3,0.8-0.2C17,1.2,17.1,1.4,17.1,1.7z"/>
</svg>
