<?xml version="1.0" encoding="utf-8"?>
<!-- Generator: Adobe Illustrator 22.1.0, SVG Export Plug-In . SVG Version: 6.00 Build 0)  -->
<svg version="1.1" id="Layer_1" xmlns="http://www.w3.org/2000/svg" xmlns:xlink="http://www.w3.org/1999/xlink" x="0px" y="0px"
	 viewBox="0 0 18 19" style="enable-background:new 0 0 18 19;" xml:space="preserve">
<style type="text/css">
	.st0{fill:#0F346F;}
</style>
<path id="telegram" class="st0" d="M17.7,0.7C17.9,0.8,18,1.1,18,1.3l-2.6,15.4c0,0.2-0.1,0.3-0.3,0.5c-0.1,0.1-0.2,0.1-0.3,0.1
	c-0.1,0-0.2,0-0.2-0.1L10,15.4l-2.4,3c-0.1,0.2-0.3,0.2-0.5,0.2c-0.1,0-0.2,0-0.2,0c-0.1,0-0.2-0.1-0.3-0.2
	c-0.1-0.1-0.1-0.2-0.1-0.4v-3.5l8.7-10.6L4.4,13.1l-4-1.6C0.2,11.4,0,11.2,0,10.9c0-0.3,0.1-0.5,0.3-0.6L17,0.7
	c0.1-0.1,0.2-0.1,0.3-0.1C17.5,0.6,17.6,0.6,17.7,0.7z"/>
</svg>
