<?xml version="1.0" encoding="utf-8"?>
<!-- Generator: Adobe Illustrator 22.1.0, SVG Export Plug-In . SVG Version: 6.00 Build 0)  -->
<svg version="1.1" id="Layer_1" xmlns="http://www.w3.org/2000/svg" xmlns:xlink="http://www.w3.org/1999/xlink" x="0px" y="0px"
	 viewBox="0 0 16 13" style="enable-background:new 0 0 16 13;" xml:space="preserve">
<style type="text/css">
	.st0{fill:#0F346F;}
</style>
<path id="Twitter" class="st0" d="M15.8,1.7c-0.4,0.7-1,1.2-1.6,1.7c0,0.1,0,0.2,0,0.4c0,0.9-0.1,1.7-0.4,2.6
	c-0.3,0.9-0.6,1.7-1.2,2.5c-0.5,0.8-1.1,1.5-1.9,2.1c-0.7,0.6-1.6,1.1-2.6,1.5S6.1,13,5,13c-1.8,0-3.5-0.5-5-1.5c0.2,0,0.5,0,0.8,0
	c1.5,0,2.8-0.5,4-1.4c-0.7,0-1.3-0.2-1.9-0.6C2.4,9.1,2,8.6,1.8,7.9C2,8,2.2,8,2.4,8C2.7,8,3,8,3.2,7.9C2.5,7.7,1.9,7.4,1.4,6.8
	C0.9,6.2,0.6,5.5,0.6,4.7v0c0.5,0.3,0.9,0.4,1.5,0.4C1.7,4.8,1.3,4.4,1.1,3.9c-0.3-0.5-0.4-1-0.4-1.5c0-0.6,0.1-1.1,0.4-1.6
	c0.8,1,1.8,1.8,3,2.4c1.2,0.6,2.4,0.9,3.7,1C7.7,3.9,7.7,3.6,7.7,3.4c0-0.9,0.3-1.7,0.9-2.3s1.4-0.9,2.3-0.9c0.9,0,1.7,0.3,2.4,1
	c0.7-0.1,1.4-0.4,2.1-0.8c-0.2,0.8-0.7,1.4-1.4,1.8C14.6,2.1,15.2,1.9,15.8,1.7z"/>
</svg>
