<?xml version="1.0" encoding="utf-8"?>
<!-- Generator: Adobe Illustrator 22.1.0, SVG Export Plug-In . SVG Version: 6.00 Build 0)  -->
<svg version="1.1" id="Layer_1" xmlns="http://www.w3.org/2000/svg" xmlns:xlink="http://www.w3.org/1999/xlink" x="0px" y="0px"
	 viewBox="0 0 20 11" style="enable-background:new 0 0 20 11;" xml:space="preserve">
<style type="text/css">
	.st0{fill:#F04950;}
</style>
<path id="VK" class="st0" d="M19.3,0.8c0.2,0.4-0.3,1.4-1.5,3c-0.2,0.2-0.4,0.5-0.7,0.9c-0.3,0.3-0.5,0.6-0.6,0.7
	c-0.1,0.1-0.2,0.3-0.3,0.5c-0.1,0.2-0.1,0.3-0.1,0.4c0,0.1,0.1,0.2,0.1,0.3s0.2,0.3,0.3,0.4c0.2,0.1,0.3,0.3,0.6,0.5c0,0,0,0,0.1,0
	c0.9,0.9,1.6,1.6,1.9,2.2c0,0,0,0.1,0.1,0.1s0,0.1,0.1,0.3s0,0.2,0,0.3c0,0.1-0.1,0.2-0.3,0.3c-0.1,0.1-0.3,0.1-0.6,0.1l-2.6,0
	c-0.2,0-0.3,0-0.6-0.1c-0.2-0.1-0.4-0.1-0.5-0.2l-0.2-0.1c-0.2-0.1-0.4-0.4-0.7-0.6c-0.3-0.3-0.5-0.5-0.7-0.8
	c-0.2-0.2-0.4-0.4-0.6-0.6c-0.2-0.2-0.4-0.2-0.6-0.2c0,0,0,0-0.1,0c0,0-0.1,0.1-0.2,0.1s-0.2,0.2-0.2,0.3c-0.1,0.1-0.1,0.3-0.2,0.5
	c-0.1,0.2-0.1,0.5-0.1,0.8c0,0.1,0,0.2,0,0.3s0,0.1-0.1,0.2l0,0.1c-0.1,0.1-0.3,0.2-0.5,0.2H9.4c-0.5,0-1,0-1.5-0.2S7,10.5,6.6,10.3
	c-0.4-0.2-0.7-0.4-1-0.7C5.3,9.4,5.1,9.2,4.9,9L4.7,8.8C4.6,8.7,4.5,8.6,4.4,8.5C4.3,8.3,4,8,3.7,7.6S2.9,6.6,2.6,6S1.8,4.8,1.4,3.9
	S0.5,2.1,0.1,1.2C0,1.1,0,1,0,0.9c0-0.1,0-0.1,0-0.2l0-0.1c0.1-0.1,0.3-0.2,0.6-0.2l2.8,0c0.1,0,0.2,0,0.2,0.1
	c0.1,0,0.1,0.1,0.2,0.1l0.1,0C3.9,0.7,4,0.8,4.1,1c0.1,0.3,0.3,0.7,0.5,1s0.3,0.6,0.4,0.8l0.2,0.3c0.2,0.4,0.4,0.7,0.6,1
	C5.8,4.5,6,4.7,6.2,4.9s0.3,0.3,0.4,0.4c0.1,0.1,0.2,0.1,0.3,0.1c0.1,0,0.2,0,0.3-0.1c0,0,0,0,0.1-0.1c0,0,0.1-0.1,0.1-0.2
	C7.4,5,7.5,4.8,7.5,4.6s0.1-0.5,0.1-0.8c0-0.3,0-0.8,0-1.3c0-0.3,0-0.5-0.1-0.7c0-0.2-0.1-0.4-0.1-0.5L7.3,1.2
	C7.1,1,6.8,0.8,6.4,0.8c-0.1,0-0.1-0.1,0.1-0.2c0.1-0.1,0.2-0.2,0.4-0.3C7.2,0.1,8,0,9.3,0c0.5,0,1,0.1,1.4,0.1
	c0.1,0,0.2,0.1,0.3,0.1c0.1,0.1,0.2,0.1,0.2,0.2c0,0.1,0.1,0.2,0.1,0.3c0,0.1,0,0.3,0,0.5c0,0.2,0,0.4,0,0.6s0,0.4,0,0.7
	c0,0.3,0,0.6,0,0.8c0,0.1,0,0.2,0,0.4c0,0.2,0,0.4,0,0.5c0,0.1,0,0.2,0,0.4c0,0.2,0.1,0.3,0.1,0.4s0.1,0.2,0.2,0.2
	c0.1,0,0.1,0,0.2,0c0.1,0,0.1,0,0.3-0.1c0.1-0.1,0.2-0.2,0.4-0.3c0.1-0.1,0.3-0.4,0.5-0.7c0.2-0.3,0.4-0.7,0.7-1.1
	c0.4-0.7,0.8-1.4,1.1-2.3c0-0.1,0.1-0.1,0.1-0.2c0-0.1,0.1-0.1,0.1-0.1l0,0l0.1,0c0,0,0.1,0,0.1,0c0.1,0,0.1,0,0.2,0l2.9,0
	c0.3,0,0.5,0,0.6,0c0.2,0.1,0.3,0.1,0.3,0.2L19.3,0.8z"/>
</svg>
