<?xml version="1.0" encoding="UTF-8"?>
<svg width="20px" height="15px" viewBox="0 0 20 15" version="1.1" xmlns="http://www.w3.org/2000/svg" xmlns:xlink="http://www.w3.org/1999/xlink">
    <!-- Generator: Sketch 51.2 (57519) - http://www.bohemiancoding.com/sketch -->
    <title>yt</title>
    <desc>Created with Sketch.</desc>
    <defs></defs>
    <g id="Page-1" stroke="none" stroke-width="1" fill="none" fill-rule="evenodd">
        <g id="iPad-Pro_pop_up_deputy" transform="translate(-180.000000, -517.000000)" fill="#F04950">
            <path d="M187.935826,526.620536 L193.337612,523.830357 L187.935826,521.006696 L187.935826,526.620536 Z M190.000558,517 C191.250564,517 192.457769,517.016741 193.62221,517.050223 C194.78665,517.083706 195.640436,517.119047 196.183594,517.15625 L196.998326,517.200893 C197.005766,517.200893 197.06901,517.206473 197.188058,517.217634 C197.307106,517.228795 197.392671,517.239955 197.444754,517.251116 C197.496838,517.262277 197.584263,517.279018 197.707031,517.301339 C197.8298,517.323661 197.935825,517.353422 198.025112,517.390625 C198.114398,517.427828 198.218563,517.47619 198.337612,517.535714 C198.45666,517.595238 198.571986,517.667782 198.683594,517.753348 C198.795201,517.838914 198.903087,517.937499 199.007254,518.049107 C199.051898,518.09375 199.109561,518.162574 199.180246,518.25558 C199.25093,518.348587 199.358816,518.566219 199.503906,518.908482 C199.648996,519.250746 199.747582,519.626486 199.799665,520.035714 C199.859189,520.511907 199.905692,521.019715 199.939174,521.559152 C199.972656,522.098589 199.993118,522.520832 200.000558,522.825893 L200.000558,524.790179 C200.007999,525.869053 199.941035,526.947911 199.799665,528.026786 C199.747582,528.436014 199.654577,528.806174 199.520647,529.137277 C199.386718,529.46838 199.267672,529.697172 199.163504,529.823661 L199.007254,530.013393 C198.903087,530.125001 198.795201,530.223586 198.683594,530.309152 C198.571986,530.394718 198.45666,530.465402 198.337612,530.521205 C198.218563,530.577009 198.114398,530.623512 198.025112,530.660714 C197.935825,530.697917 197.8298,530.727678 197.707031,530.75 C197.584263,530.772322 197.494978,530.789062 197.439174,530.800223 C197.38337,530.811384 197.297806,530.822545 197.182478,530.833705 C197.06715,530.844866 197.005766,530.850446 196.998326,530.850446 C195.130757,530.991816 192.798191,531.0625 190.000558,531.0625 C188.460372,531.047619 187.12296,531.023438 185.988281,530.989955 C184.853603,530.956473 184.107703,530.928572 183.750558,530.90625 L183.203683,530.861607 L182.801897,530.816964 C182.534039,530.779762 182.331288,530.74256 182.193638,530.705357 C182.055989,530.668155 181.866259,530.59003 181.624442,530.470982 C181.382625,530.351934 181.172434,530.199406 180.993862,530.013393 C180.949219,529.96875 180.891555,529.899926 180.820871,529.80692 C180.750186,529.713913 180.6423,529.496281 180.49721,529.154018 C180.35212,528.811754 180.253534,528.436014 180.201451,528.026786 C180.141927,527.550593 180.095424,527.042785 180.061942,526.503348 C180.02846,525.963911 180.007999,525.541668 180.000558,525.236607 L180.000558,523.272321 C179.993118,522.193447 180.060081,521.114589 180.201451,520.035714 C180.253534,519.626486 180.34654,519.256326 180.480469,518.925223 C180.614398,518.59412 180.733444,518.365328 180.837612,518.238839 L180.993862,518.049107 C181.098029,517.937499 181.205915,517.838914 181.317522,517.753348 C181.42913,517.667782 181.544456,517.595238 181.663504,517.535714 C181.782553,517.47619 181.886718,517.427828 181.976004,517.390625 C182.065291,517.353422 182.171316,517.323661 182.294085,517.301339 C182.416853,517.279018 182.504278,517.262277 182.556362,517.251116 C182.608445,517.239955 182.69401,517.228795 182.813058,517.217634 C182.932106,517.206473 182.99535,517.200893 183.00279,517.200893 C184.870359,517.066964 187.202925,517 190.000558,517 Z" id="yt"></path>
        </g>
    </g>
</svg>